<?xml version="1.0" encoding="utf-8"?>
<!-- Generator: Adobe Illustrator 26.0.2, SVG Export Plug-In . SVG Version: 6.00 Build 0)  -->
<svg version="1.1" id="Layer_1" xmlns="http://www.w3.org/2000/svg" xmlns:xlink="http://www.w3.org/1999/xlink" x="0px" y="0px"
	 viewBox="0 0 512 512" style="enable-background:new 0 0 512 512;" xml:space="preserve">
<style type="text/css">
	.st0{fill:#F1748C;}
	.st1{fill:#EE586B;}
	.st2{fill:#FFFFFF;}
	.st3{fill:#221F1F;}
</style>
<g>
	<g>
		<path class="st0" d="M459,84.9h-51.8l-300.7,0H54.7c-17.2,0-31.1,15.8-31.1,35.4v140v56.8v57.6v64.1c15.4,0,438.4,0,466.5,0V120.3
			C490.1,100.8,476.2,84.9,459,84.9z M152.3,396h-41.5V349c0-2.7,2.2-4.9,4.9-4.9h31.6c2.7,0,4.9,2.2,4.9,4.9V396z M235.3,396h-41.5
			v-83c0-2.7,2.2-4.9,4.9-4.9h31.6c2.7,0,4.9,2.2,4.9,4.9V396z M318.2,396h-41.5V273.8c0-2.7,2.2-4.9,4.9-4.9h31.6
			c2.7,0,4.9,2.2,4.9,4.9V396z M401.1,396h-41.5V224.6c0-2.7,2.2-4.9,4.9-4.9h31.6c2.7,0,4.9,2.2,4.9,4.9V396z"/>
		<g id="XMLID_00000177484275653852492770000006783020909137437625_">
			<path class="st1" d="M375.2,178.2H136.8c-17.2,0-31.1-13.9-31.1-31.1V64.2c0-17.2,13.9-31.1,31.1-31.1h238.4
				c17.2,0,31.1,13.9,31.1,31.1v82.9C406.3,164.3,392.4,178.2,375.2,178.2z"/>
		</g>
		<g>
			<path class="st2" d="M369.9,78.1l-0.2-1.5c-0.8-4-4.2-6.9-8.2-7.1c-3.7-0.2-7.2,1.9-8.7,5.3l-20.3,39.2l-20.7-39.3
				c-1.5-3.4-4.9-5.5-8.7-5.2c-4,0.3-7.4,3.2-8.2,7.2l-0.1,0.7l0.1,56.3c0,4.2,3.4,7.6,7.6,7.6c0,0,0,0,0,0c4.2,0,7.6-3.4,7.6-7.6
				l-0.1-29.5l14.4,27.2c1.4,3.2,4.6,5.2,8.1,5.2c0,0,0,0,0.1,0c3.5,0,6.7-2.1,8.1-5.3l14.1-27.2l0.2,29.6c0,4.2,3.4,7.6,7.6,7.6
				c0,0,0,0,0.1,0c4.2,0,7.6-3.5,7.6-7.7L369.9,78.1z"/>
			<path class="st2" d="M200.7,120.3c-3.2-2.7-8-2.3-10.7,0.9c-3,3.5-7,5.3-12.1,5.3c-11.5,0-20.9-9.4-20.9-20.9
				c0-11.5,9.4-20.9,20.9-20.9c4.2,0,8.2,1.2,11.7,3.6c3.5,2.4,8.2,1.4,10.6-2c2.4-3.5,1.4-8.2-2-10.6c-6-4-13-6.2-20.2-6.2
				c-19.9,0-36.1,16.2-36.1,36.1c0,19.9,16.2,36.1,36.1,36.1c9.5,0,18-3.8,23.8-10.8C204.3,127.8,203.9,123,200.7,120.3z"/>
			<path class="st2" d="M272.2,92c0-12.4-10.4-22.4-23.3-22.4h-7.6v0l-7.6,0c-0.5,0-1,0-1.5,0.1l-6.1,0.4l0,6.7c0,0.2,0,0.3,0,0.5
				v57c0,4.2,3.4,7.6,7.6,7.6c4.2,0,7.6-3.4,7.6-7.6v-14.8l17.5,19.9c1.5,1.7,3.6,2.6,5.7,2.6c1.8,0,3.6-0.6,5-1.9
				c3.2-2.8,3.5-7.6,0.7-10.8l-14-15.9C265.6,110.3,272.2,101.9,272.2,92z M248.9,99.2c-1.8,0-4.7,0-7.5,0l-0.1-14.4h7.5
				c4.4,0,8,3.3,8,7.2C257,95.9,253.3,99.2,248.9,99.2z"/>
		</g>
		<g>
			<path class="st1" d="M494.4,396H346H166H17.6C8.9,396,2,403,2,411.6c0.1,37.2,30.2,67.3,67.4,67.3h373.2
				c37.2,0,67.3-30.1,67.4-67.3C510,403,503.1,396,494.4,396z"/>
		</g>
		<g id="XMLID_00000091005280302263737130000009474969480029856390_">
			<path class="st3" d="M375.2,437.4"/>
		</g>
		<g id="XMLID_00000141440889756165426370000008993525347997363328_">
			<path class="st3" d="M416.7,437.4"/>
		</g>
		<g id="XMLID_00000147208876116781039320000007759276578659730868_">
			<path class="st3" d="M458.2,437.4"/>
		</g>
	</g>
</g>
</svg>
