<?xml version="1.0" encoding="utf-8"?>
<!-- Generator: Adobe Illustrator 26.0.2, SVG Export Plug-In . SVG Version: 6.00 Build 0)  -->
<svg version="1.1" id="Layer_1" xmlns="http://www.w3.org/2000/svg" xmlns:xlink="http://www.w3.org/1999/xlink" x="0px" y="0px"
	 viewBox="0 0 512 512" style="enable-background:new 0 0 512 512;" xml:space="preserve">
<style type="text/css">
	.st0{fill:#70C7C2;}
	.st1{fill:#A2D9D7;}
	.st2{fill:#4FB4AD;}
</style>
<g>
	<g>
		<g>
			<path class="st0" d="M408.1,65.1C367.4,24.4,313.4,2,255.8,2S144.3,24.4,103.6,65.1c-40.7,40.7-63.1,94.7-63.1,152.3v17.8
				c3-1.8,6.5-2.8,10.2-2.8h50.1c3.6,0,7,1,10,2.7v-17.7C110.8,137.2,175.9,72,256,72s145.2,65.2,145.2,145.2v17.7
				c2.9-1.7,6.3-2.7,10-2.7h50.1c3.6,0,7,1,9.9,2.6v-17.6C471.2,159.8,448.8,105.7,408.1,65.1z"/>
		</g>
		<g>
			<path class="st1" d="M301.1,202.2h-90.1c-16.6,0-30,13.4-30,30v60.1c0,16.6,13.4,30,30,30H261l20,30l20-30c16.6,0,30-13.4,30-30
				v-60.1C331.1,215.7,317.7,202.2,301.1,202.2z M291,289.7H221c-4.1,0-7.4-3.3-7.4-7.4s3.3-7.4,7.4-7.4H291c4.1,0,7.4,3.3,7.4,7.4
				S295.1,289.7,291,289.7z M291,249.6H221c-4.1,0-7.4-3.3-7.4-7.4s3.3-7.4,7.4-7.4H291c4.1,0,7.4,3.3,7.4,7.4
				S295.1,249.6,291,249.6z"/>
			<path class="st0" d="M406.2,435.2c-4.1,0-7.4,3.3-7.4,7.4v10c0,12.5-10.2,22.7-22.7,22.7h-88.8c-3.2-11.5-13.8-20-26.4-20h-20
				c-15.1,0-27.4,12.3-27.4,27.4S225.9,510,241,510h20c12.6,0,23.1-8.5,26.4-20h88.8c20.6,0,37.4-16.8,37.4-37.4v-10
				C413.6,438.5,410.3,435.2,406.2,435.2z"/>
			<path class="st1" d="M100.8,224.9H50.7c-7.3,0-14.2,2.9-19.4,8c-5.2,5.2-8,12.1-8,19.4v58.2c0,4.1,3.3,7.4,7.4,7.4
				s7.4-3.3,7.4-7.4v-3l75.9-30.7c1.1,2.7,3.7,4.6,6.8,4.6c4.1,0,7.4-3.3,7.4-7.4v-21.7C128.2,237.2,115.9,224.9,100.8,224.9z"/>
			<path class="st0" d="M72.4,415.1V299.8c0.1,0,0.2,0,0.4,0l-0.7-14.7C33.5,287,3.3,318.8,3.3,357.4c0,19.4,7.5,37.5,21.2,51.2
				c12.7,12.7,29.6,20.2,47.5,21.1l0.7-14.7C72.7,415.1,72.6,415.1,72.4,415.1z"/>
			<path class="st2" d="M110.8,265h-10c-15.9,0-30.1,10.1-35.3,25c-1.4,4-2.1,8.1-2.1,12.4v110.1c0,4.3,0.7,8.4,2.1,12.4
				c5.2,15,19.4,25,35.3,25h10c20.6,0,37.4-16.8,37.4-37.4V302.4C148.2,281.7,131.4,265,110.8,265z"/>
			<path class="st1" d="M480.6,232.9c-5.2-5.2-12.1-8-19.4-8h-50.1c-15.1,0-27.4,12.3-27.4,27.4V274c0,4.1,3.3,7.4,7.4,7.4
				c3.1,0,5.7-1.9,6.8-4.6l75.9,30.7v3c0,4.1,3.3,7.4,7.4,7.4s7.4-3.3,7.4-7.4v-58.2C488.7,245,485.8,238.1,480.6,232.9z"/>
			<path class="st0" d="M439.9,285.1l-0.7,14.7c0.1,0,0.2,0,0.4,0l0,115.3c-0.1,0-0.2,0-0.4,0l0.4,7.3v0h0l0.4,7.4
				c17.9-0.9,34.8-8.4,47.5-21.1c13.7-13.7,21.2-31.9,21.2-51.2C508.7,318.8,478.5,287,439.9,285.1z"/>
			<path class="st2" d="M446.5,290c-5.2-15-19.4-25-35.3-25h-10c-20.6,0-37.4,16.8-37.4,37.4v110.1c0,20.6,16.8,37.4,37.4,37.4h10
				c15.9,0,30.1-10.1,35.3-25c1.4-4,2.1-8.1,2.1-12.4V302.4C448.6,298.1,447.9,293.9,446.5,290z"/>
		</g>
	</g>
</g>
</svg>
