<?xml version="1.0" encoding="utf-8"?>
<!-- Generator: Adobe Illustrator 26.0.2, SVG Export Plug-In . SVG Version: 6.00 Build 0)  -->
<svg version="1.1" id="Layer_1" xmlns="http://www.w3.org/2000/svg" xmlns:xlink="http://www.w3.org/1999/xlink" x="0px" y="0px"
	 viewBox="0 0 512 512" style="enable-background:new 0 0 512 512;" xml:space="preserve">
<style type="text/css">
	.st0{fill:#F27346;}
	.st1{fill:#F58D73;}
</style>
<g>
	<g>
		<path class="st0" d="M375.8,111.4H179.9c-74.1,0-134.2,60.1-134.2,134.2v198.5h330.1c74.1,0,134.2-60.1,134.2-134.2v-64.3
			C510,171.5,449.9,111.4,375.8,111.4z M302.9,339.5H174.6c-5.6,0-10.2-4.5-10.2-10.2c0-5.6,4.5-10.2,10.2-10.2h128.3
			c5.6,0,10.2,4.5,10.2,10.2C313,335,308.5,339.5,302.9,339.5z M381.1,288H174.6c-5.6,0-10.2-4.5-10.2-10.2
			c0-5.6,4.5-10.2,10.2-10.2h206.5c5.6,0,10.2,4.5,10.2,10.2C391.2,283.4,386.7,288,381.1,288z M381.1,236.4H174.6
			c-5.6,0-10.2-4.5-10.2-10.2c0-5.6,4.5-10.2,10.2-10.2h206.5c5.6,0,10.2,4.5,10.2,10.2C391.2,231.9,386.7,236.4,381.1,236.4z"/>
	</g>
	<g>
		<path class="st1" d="M45.6,245.7c0-74.1,60.1-134.2,134.2-134.2h195.9c25.9,0,50.1,7.3,70.6,20c-23.7-38.2-65.9-63.7-114.2-63.7
			H136.2C62.1,67.8,2,127.9,2,202v198.5h43.6V245.7z"/>
	</g>
</g>
</svg>
