<?xml version="1.0" encoding="utf-8"?>
<!-- Generator: Adobe Illustrator 26.0.2, SVG Export Plug-In . SVG Version: 6.00 Build 0)  -->
<svg version="1.1" id="Layer_1" xmlns="http://www.w3.org/2000/svg" xmlns:xlink="http://www.w3.org/1999/xlink" x="0px" y="0px"
	 viewBox="0 0 512 512" style="enable-background:new 0 0 512 512;" xml:space="preserve">
<style type="text/css">
	.st0{fill:#65479B;}
	.st1{fill:#917BB7;}
	.st2{fill:#6F5AA5;}
</style>
<g>
	<path class="st0" d="M502.1,53.4l-41.3-8.3c-4.3-0.8-8.4,1.9-9.2,6.2l-8.3,41.3c-1.1,5.3,2.4,10.5,7.7,11.5l0,0
		c5.3,1.1,10.5-2.4,11.5-7.7l3.4-16.8c9.5,19.7,14.5,41.5,14.5,63.6c0,30.6-9.1,59.5-26.5,84.3c-3,4.3-2.4,10.2,1.7,13.5v0
		c4.5,3.6,11,2.5,14.3-2.2c19.5-27.9,30.2-61.4,30.2-95.6c0-25.7-5.9-51-17.2-73.8l15.5,3.1c5.3,1.1,10.5-2.4,11.5-7.7v0
		C510.9,59.6,507.4,54.5,502.1,53.4z"/>
	<circle class="st1" cx="187.5" cy="347.8" r="35.6"/>
	<path class="st0" d="M312.1,330.7c0-7.3-5-13.6-12.2-15.2l-18.4-4.1l-1.8-4.3l10.1-15.9c4-6.1,3.1-14.2-2.1-19.4l-24.2-24.2
		c-5.1-5.2-13.2-6.1-19.4-2.1l-15.9,10.1l-4.3-1.8l-4.1-18.4c-1.6-7.1-7.9-12.2-15.2-12.2h-34.2c-7.3,0-13.6,5-15.2,12.2l-4.1,18.4
		l-4.3,1.8l-15.9-10.1c-6.1-4-14.2-3.1-19.4,2.1l-24.2,24.2c-5.2,5.1-6.1,13.2-2.1,19.4l10.1,15.9l-1.8,4.3l-18.4,4.1
		c-7.1,1.5-12.2,7.9-12.2,15.2v34.2c0,7.3,5,13.6,12.2,15.2l18.4,4.1l1.8,4.3l-10.1,15.9c-4,6.1-3.1,14.2,2.1,19.4l24.2,24.2
		c5.1,5.2,13.2,6.1,19.4,2.1l15.9-10.1l4.3,1.8l4.1,18.4c1.6,7.1,7.9,12.2,15.2,12.2h34.2c7.3,0,13.6-5,15.2-12.2l4.1-18.4l4.3-1.8
		l15.9,10.1c6.1,3.9,14.2,3.1,19.4-2.1l24.2-24.2c5.2-5.1,6.1-13.2,2.1-19.4l-10.1-15.9l1.8-4.3l18.4-4.1
		c7.1-1.5,12.2-7.9,12.2-15.2V330.7z M187.5,410.1c-34.4,0-62.3-27.9-62.3-62.3s27.9-62.3,62.3-62.3s62.3,27.9,62.3,62.3
		C249.8,382.2,221.9,410,187.5,410.1z"/>
	<g>
		<path class="st1" d="M181.8,144.7l-27.1-12.3c-4.6-2.1-10,0-12.1,4.6l0,0c-2.1,4.6,0,10,4.6,12.1l7.7,3.5c-4.8,1.5-9.7,3-14.4,4.8
			C77.1,181.2,27.3,230.5,2.6,293.3c-1.9,4.8,0.7,10.2,5.6,11.9c4.7,1.6,9.7-0.8,11.6-5.4C42.6,241.9,88.5,196.5,147,174.5
			c4.4-1.6,8.8-3,13.3-4.4l-2.8,6.2c-2.1,4.6,0,10,4.6,12.1l0,0c4.6,2.1,10,0,12.1-4.6l12.3-27.1
			C188.5,152.3,186.4,146.8,181.8,144.7z"/>
		
			<ellipse transform="matrix(0.9732 -0.2298 0.2298 0.9732 -68.5747 106.647)" class="st1" cx="423.7" cy="347.8" rx="17.5" ry="17.5"/>
		<path class="st1" d="M492.2,328.1l-11.2-2.5l-1.1-2.6l6.2-9.7c2.4-3.7,1.9-8.7-1.3-11.8L470,286.7c-3.1-3.2-8.1-3.7-11.8-1.3
			l-9.7,6.2l-2.6-1.1l-2.5-11.2c-0.9-4.4-4.8-7.5-9.3-7.4h-20.9c-4.5,0-8.3,3.1-9.3,7.4l-2.5,11.2l-2.6,1.1l-9.7-6.2
			c-3.7-2.4-8.7-1.9-11.8,1.3l-14.8,14.8c-3.2,3.1-3.7,8.1-1.3,11.8l6.2,9.7l-1.1,2.6l-11.2,2.5c-4.4,0.9-7.5,4.8-7.4,9.3v20.9
			c0,4.5,3.1,8.3,7.4,9.3l11.2,2.5l1.1,2.6l-6.2,9.7c-2.4,3.7-1.9,8.7,1.3,11.8l14.8,14.8c3.1,3.2,8.1,3.7,11.8,1.3l9.7-6.2l2.6,1.1
			l2.5,11.2c0.9,4.4,4.8,7.5,9.3,7.4h20.9c4.5,0,8.3-3.1,9.3-7.4l2.5-11.2l2.6-1.1l9.7,6.2c3.7,2.4,8.7,1.9,11.8-1.3l14.8-14.8
			c3.2-3.1,3.7-8.1,1.3-11.8l-6.2-9.7l1.1-2.6l11.2-2.5c4.4-0.9,7.5-4.8,7.4-9.3v-20.9C499.7,332.9,496.6,329,492.2,328.1z
			 M423.7,385.8c-21,0-38-17-38-38c0-21,17-38,38-38c21,0,38,17,38,38C461.6,368.8,444.6,385.8,423.7,385.8z"/>
	</g>
	<g>
		
			<ellipse transform="matrix(0.9732 -0.2298 0.2298 0.9732 -23.9069 82.8676)" class="st2" cx="343.9" cy="144.1" rx="28.2" ry="28.2"/>
		<path class="st2" d="M438.1,117l-15.4-3.4l-1.5-3.6l8.5-13.3c3.3-5.2,2.6-11.9-1.8-16.2l-20.3-20.3c-4.3-4.3-11.1-5.1-16.2-1.8
			L378,66.8l-3.6-1.5L371,49.9c-1.3-6-6.6-10.3-12.7-10.2h-28.7c-6.1,0-11.4,4.2-12.7,10.2l-3.4,15.4l-3.6,1.5l-13.3-8.5
			c-5.2-3.3-11.9-2.6-16.2,1.8l-20.3,20.3c-4.3,4.3-5.1,11.1-1.8,16.2l8.5,13.3l-1.5,3.6l-15.4,3.4c-6,1.3-10.3,6.6-10.2,12.7v28.7
			c0,6.1,4.2,11.4,10.2,12.7l15.4,3.4l1.5,3.6l-8.5,13.3c-3.3,5.2-2.6,11.9,1.8,16.2l20.3,20.3c4.3,4.4,11.1,5.1,16.2,1.8l13.3-8.5
			l3.6,1.5l3.4,15.4c1.3,6,6.6,10.3,12.7,10.2h28.7c6.1,0,11.4-4.2,12.7-10.2l3.4-15.4l3.6-1.5l13.3,8.5c5.2,3.3,11.9,2.6,16.2-1.8
			l20.3-20.3c4.3-4.3,5.1-11.1,1.8-16.2l-8.5-13.3l1.5-3.6l15.4-3.4c6-1.3,10.3-6.6,10.2-12.7v-28.7
			C448.4,123.6,444.1,118.3,438.1,117z M343.9,196.3c-28.8,0-52.2-23.4-52.2-52.2s23.4-52.2,52.2-52.2s52.2,23.4,52.2,52.2
			C396.1,172.9,372.7,196.3,343.9,196.3z"/>
	</g>
</g>
</svg>
